<svg id="Layer_1" data-name="Layer 1" xmlns="http://www.w3.org/2000/svg" viewBox="0 0 71 100"><defs><style>.cls-1{opacity:0.11;}</style></defs><title>Artboard 10</title><polygon class="cls-1" points="35.73 36.36 47.51 48.14 59.29 36.36 71.07 24.58 59.29 12.8 47.51 24.58 35.73 12.8 23.95 24.58 12.17 12.8 0.39 24.58 12.17 36.36 23.95 48.14 35.73 36.36"/><polygon class="cls-1" points="70.73 56.8 58.95 68.58 47.17 56.8 35.39 68.58 47.17 80.36 58.95 92.14 70.73 80.36 70.73 56.8"/><polygon class="cls-1" points="23.29 56.8 11.51 68.58 -0.27 56.8 -0.27 56.8 -0.27 80.36 -0.27 80.36 11.51 92.14 23.29 80.36 35.07 68.58 23.29 56.8"/></svg>