<svg xmlns="http://www.w3.org/2000/svg" viewBox="0 0 600 600"><defs><style>.cls-1{fill:#cc177a;}.cls-2{fill:#1f1f99;}</style></defs><title>Asset 8</title><g id="Layer_2" data-name="Layer 2"><g id="Layer_1-2" data-name="Layer 1"><rect class="cls-1" x="236.72" y="247.33" width="118.57" height="119.02" transform="translate(-130.27 299.17) rotate(-45)"/><polygon class="cls-2" points="488 350 488 488 111 488 111 111 250 111 250 100 250 0 200 0 100 0 0 0 0 100 0 500 0 600 100 600 500 600 525 600 600 600 600 400 600 378 600 350 500 350 488 350"/><polygon class="cls-2" points="500 100 500 0 400 0 300 0 300 100 300 111 388 111 388 211 400 211 488 211 488 300 500 300 600 300 600 200 600 100 500 100"/></g></g></svg>